<svg xmlns="http://www.w3.org/2000/svg" viewBox="0 0 211.48 175.83"><defs><style>.cls-1{fill:#9a579e;}.cls-2{fill:#fff;}</style></defs><g id="Capa_2" data-name="Capa 2"><g id="Capa_1-2" data-name="Capa 1"><rect class="cls-1" width="211.48" height="175.83" rx="40.73"/><path class="cls-2" d="M106.7,25.7l47.38,19.67c3.34,1.39,4.16,2.57,4.16,6.15,0,7.45,0,14.91,0,22.36q-.31,36.66-27.39,61.41a78.59,78.59,0,0,1-22.93,14.37,5.28,5.28,0,0,1-4.35,0Q65.41,132.94,55.29,92.54a74.58,74.58,0,0,1-2.06-18.18V50.91a5,5,0,0,1,3.48-5.25l46.83-19.45,1.22-.51ZM63,69.06c-.12,5.62-.11,12.8,1.49,19.84q8,35.16,40.51,50.73a2.15,2.15,0,0,0,1.56,0,71.7,71.7,0,0,0,42-64.11c.07-7,0-13.94,0-20.9a1.37,1.37,0,0,0-1-1.48q-20.4-8.44-40.79-16.91a2.71,2.71,0,0,0-1.82,0q-20.52,8.46-41,17a1.29,1.29,0,0,0-.93,1.42C63,58.92,63,63.21,63,69.06Z"/><path class="cls-2" d="M100.36,90.71c.36-.34.69-.62,1-.93q9.78-9.8,19.57-19.59a4.9,4.9,0,0,1,5.18-1.5,4.81,4.81,0,0,1,2.44,7.56,11.76,11.76,0,0,1-1.07,1.16l-23.1,23.1c-2.69,2.69-5.33,2.7-8,0Q89.93,94.1,83.49,87.66a4.73,4.73,0,0,1-1.35-5,4.65,4.65,0,0,1,3.77-3.38,4.91,4.91,0,0,1,4.6,1.63q4.58,4.6,9.18,9.18C99.89,90.3,100.1,90.47,100.36,90.71Z"/></g></g></svg>