<svg xmlns="http://www.w3.org/2000/svg" viewBox="0 0 48.71 48.71"><defs><style>.cls-1{fill:#fff;}</style></defs><g id="Capa_2" data-name="Capa 2"><g id="Capa_1-2" data-name="Capa 1"><path class="cls-1" d="M36.58,15a5,5,0,0,0-2.89-2.89,8.63,8.63,0,0,0-2.88-.53c-1.67-.08-2.18-.1-6.45-.1h-.07l-.06,0c-4.14,0-4.69,0-6.31.08h-.08a8.56,8.56,0,0,0-2.88.55,4.41,4.41,0,0,0-1.75,1.13A4.53,4.53,0,0,0,12.06,15a8.91,8.91,0,0,0-.54,2.89V18c0,1.64-.07,2.2-.07,6.37s0,4.73.07,6.36v.08a9,9,0,0,0,.54,2.9,4.74,4.74,0,0,0,1.14,1.75A4.82,4.82,0,0,0,15,36.56a9,9,0,0,0,2.9.55c1.68.07,2.13.09,6.46.09s4.78,0,6.46-.08a8.92,8.92,0,0,0,2.9-.54,4.71,4.71,0,0,0,1.75-1.13,4.86,4.86,0,0,0,1.14-1.76,8.91,8.91,0,0,0,.55-2.88c.08-1.73.1-2.24.1-6.45s0-4.78-.09-6.45A8.41,8.41,0,0,0,36.58,15ZM24.36,32.79a8.44,8.44,0,1,1,0-16.87h0a8.44,8.44,0,0,1,0,16.87ZM32.88,18h0A2.16,2.16,0,1,1,35,15.83,2.13,2.13,0,0,1,32.88,18Z"/><path class="cls-1" d="M24.36,19.27a5.09,5.09,0,1,0,5.08,5.09A5.09,5.09,0,0,0,24.36,19.27Z"/><path class="cls-1" d="M24.36,0A24.36,24.36,0,1,0,48.71,24.36,24.36,24.36,0,0,0,24.36,0ZM40.47,31a12.14,12.14,0,0,1-.76,3.95,8.44,8.44,0,0,1-4.81,4.81,12.15,12.15,0,0,1-4,.76c-1.73.07-2.3.09-6.58.09s-4.91,0-6.6-.09a12,12,0,0,1-3.94-.76,8.2,8.2,0,0,1-2.92-1.9A8,8,0,0,1,9,34.9a11.9,11.9,0,0,1-.76-4c-.08-1.66-.1-2.17-.1-6.58s0-4.9.1-6.6a12,12,0,0,1,.76-4A8,8,0,0,1,10.9,10.9,8.13,8.13,0,0,1,13.81,9a11.9,11.9,0,0,1,4-.76c1.74-.08,2.31-.1,6.59-.1s4.9,0,6.59.1A11.89,11.89,0,0,1,34.9,9a7.92,7.92,0,0,1,2.91,1.89,8.16,8.16,0,0,1,1.9,2.91,12.25,12.25,0,0,1,.76,4c.07,1.74.09,2.31.09,6.59S40.55,29.25,40.47,31Z"/></g></g></svg>