<svg xmlns="http://www.w3.org/2000/svg" viewBox="0 0 254.71 86.04"><defs><style>.cls-1{fill:#fff;}</style></defs><g id="Capa_2" data-name="Capa 2"><g id="Capa_1-2" data-name="Capa 1"><path class="cls-1" d="M68.17,37.58a22.59,22.59,0,0,0-15.22-4l-.68-7.28A29.9,29.9,0,0,1,72.4,31.62Z"/><path class="cls-1" d="M72.4,80.55A30,30,0,0,1,25.28,58.91h7.34A22.67,22.67,0,0,0,68.17,74.59Z"/><path class="cls-1" d="M24.67,52.28A30,30,0,0,1,5.5,5.49l6,4.22A22.67,22.67,0,0,0,26,45.09Z"/><path class="cls-1" d="M33.39,52.45A30,30,0,0,0,52.56,5.66l-6,4.22A22.65,22.65,0,0,1,32.1,45.26Z"/><rect class="cls-1" x="43.17" y="0.79" width="10.5" height="10.5" rx="3.18" transform="translate(4.41 27.12) rotate(-32.71)"/><rect class="cls-1" x="4.07" y="0.79" width="10.5" height="10.5" rx="3.18" transform="translate(-0.8 10.62) rotate(-57.29)"/><path class="cls-1" d="M63.42,42.61a13.29,13.29,0,0,1,5.84,1.3,11.67,11.67,0,0,1,4.38,3.6l-4.33,3.4a7,7,0,0,0-5.89-2.8,7.12,7.12,0,0,0-5.24,2.09,7.88,7.88,0,0,0,0,10.71,7.52,7.52,0,0,0,11.13-.78l4.33,3.44a11.59,11.59,0,0,1-4.38,3.64,13.29,13.29,0,0,1-5.84,1.29,12.39,12.39,0,0,1-9.11-3.63,12.57,12.57,0,0,1-3.65-9.31,12.55,12.55,0,0,1,3.65-9.31A12.4,12.4,0,0,1,63.42,42.61Z"/><path class="cls-1" d="M76.51,41.83a3,3,0,0,1,4,0,3,3,0,0,1,0,4.05,3,3,0,0,1-4,0,3,3,0,0,1,0-4.05Zm-.6,6.49h5.17V68H75.91Z"/><path class="cls-1" d="M95.48,47.9V53A5.72,5.72,0,0,0,89.1,59V68H83.92V48.32H89.1v2.84a7.49,7.49,0,0,1,2.75-2.39A7.78,7.78,0,0,1,95.48,47.9Z"/><path class="cls-1" d="M97,48.32h5.18V59.11q0,4.64,3.4,4.64a5.49,5.49,0,0,0,2.89-.73,4.07,4.07,0,0,0,1.76-2V48.32h5.18V68H110.2V65.38a8,8,0,0,1-2.91,2.29,8.26,8.26,0,0,1-3.51.83,6.63,6.63,0,0,1-4.75-2A6.9,6.9,0,0,1,97,61.3v-13Z"/><path class="cls-1" d="M121.41,64.87a12.11,12.11,0,0,1-3.94-9.31,12.09,12.09,0,0,1,3.94-9.31,14.11,14.11,0,0,1,10-3.64A15.07,15.07,0,0,1,137.79,44a11.86,11.86,0,0,1,4.68,3.76l.32.43-.42.32L138,51.87l-.42.32-.36-.43a7.1,7.1,0,0,0-5.85-2.58A7.62,7.62,0,0,0,126.18,51a6.1,6.1,0,0,0,0,9.18,7.62,7.62,0,0,0,5.19,1.79,7.17,7.17,0,0,0,5.85-2.66l.36-.42.42.32,4.37,3.44.42.32-.32.42a11.78,11.78,0,0,1-4.68,3.8,15.22,15.22,0,0,1-6.42,1.34A14.11,14.11,0,0,1,121.41,64.87Z"/><path class="cls-1" d="M158.36,47.9v6.2h-.53A6.84,6.84,0,0,0,153,55.61a4.69,4.69,0,0,0-1.59,3.5V68h-6.74V48.32h6.74v2a10.51,10.51,0,0,1,6.42-2.37Z"/><path class="cls-1" d="M162.45,65.59a10.2,10.2,0,0,1,0-14.8,11.63,11.63,0,0,1,8.12-2.89,10.41,10.41,0,0,1,7.29,2.64q2.9,2.64,2.89,7.54a13.12,13.12,0,0,1-.07,1.59l-.07.46H165.88a3.85,3.85,0,0,0,1.73,1.95,5.71,5.71,0,0,0,2.91.71,4.74,4.74,0,0,0,4.15-2.12l.29-.43.46.25L180,62.72l.49.25-.28.5a10.07,10.07,0,0,1-4,3.69,12,12,0,0,1-5.69,1.34A11.49,11.49,0,0,1,162.45,65.59ZM174.28,55.1c-.4-1-1.65-1.53-3.76-1.53a5.22,5.22,0,0,0-4,1.53Zm-3.15-16.28h6.49l-.43.78-4.08,7.27-.14.28h-4.79l.25-.71L171,39.17Z"/><path class="cls-1" d="M198.47,41.27h6.42V68h-6.42V67a9.85,9.85,0,0,1-5.53,1.52,10.43,10.43,0,0,1-7.72-2.89,10,10,0,0,1-2.89-7.43,10,10,0,0,1,2.89-7.41,10.49,10.49,0,0,1,7.72-2.87,9.85,9.85,0,0,1,5.53,1.52V41.27Zm-1.4,20.25a4.67,4.67,0,0,0,0-6.67,5.06,5.06,0,0,0-3.53-1.28A5.13,5.13,0,0,0,190,54.85a4.63,4.63,0,0,0,0,6.67,5.12,5.12,0,0,0,3.55,1.27A5.05,5.05,0,0,0,197.07,61.52Z"/><path class="cls-1" d="M208.48,46.78a3.55,3.55,0,0,1,0-4.79,3.54,3.54,0,0,1,4.72,0,3.52,3.52,0,0,1,0,4.79,3.27,3.27,0,0,1-2.36.91A3.3,3.3,0,0,1,208.48,46.78Zm-.76,1.54H214V68h-6.24V48.32Z"/><path class="cls-1" d="M218.82,43h6.78v5.35h5.46v5.82H225.6v5.71A5.11,5.11,0,0,0,226,62.1a1.52,1.52,0,0,0,1.51.73,4.6,4.6,0,0,0,1.43-.23,4.31,4.31,0,0,0,1-.45l.32-.24.53-.5.32.67,1.63,3.76.11.32-.21.25A7.58,7.58,0,0,1,227,68.5a12.35,12.35,0,0,1-3.26-.39,5.42,5.42,0,0,1-2.29-1.19,7.93,7.93,0,0,1-1.41-1.66,6.48,6.48,0,0,1-.82-2.15,17.31,17.31,0,0,1-.34-2.28c0-.68-.07-1.49-.07-2.43V54.14H215.6V48.32h3.22V43Z"/><path class="cls-1" d="M235.45,65.59a10.27,10.27,0,0,1,0-14.8,12.67,12.67,0,0,1,16.11,0,10.27,10.27,0,0,1,0,14.8,12.6,12.6,0,0,1-16.11,0Zm11.6-4.06a4.31,4.31,0,0,0,1.42-3.35,4.25,4.25,0,0,0-1.42-3.33,5.1,5.1,0,0,0-3.54-1.28,5.19,5.19,0,0,0-3.57,1.28,4.24,4.24,0,0,0-1.44,3.33,4.29,4.29,0,0,0,1.44,3.35,5.12,5.12,0,0,0,3.57,1.3A5,5,0,0,0,247.05,61.53Z"/><path class="cls-1" d="M145,33.77h-.09c.21,0,.32,0,.31,0h-.84c-2.58-.12-10.67-.18-16.79-.24l-3.47,0c-2.34-.05-3.9-.07-3.9-.05l-3.25,0h0c-6.7-.08-21.43-.28-21.25-.2l-2.06-8.09-.06-.21-.06.21-3,9.53L90.32,33c-.66-7.88-2-16.46-3-24.55v0h0c0-.39-.1-.79-.14-1.18L87,8.35,84.19,39.22,82.51,24.87l-.19-1.64-.26,1.64s-1.24,8.08-1.3,8.46l-11.85.17V34l12.36.21h.23l0-.23L82,31.6c.56,5.94,2.16,22.61,2.21,23.24,1.07-9.55,2.23-22,3.2-32l2.41,18,.11.8.23-.77,3.28-10.8c.33,1.25,1.16,4.32,1.16,4.32s0,.11.14.11c12.57-.09,37.85-.43,50.43-.68C145.21,33.8,145.13,33.78,145,33.77Z"/></g></g></svg>