<svg xmlns="http://www.w3.org/2000/svg" viewBox="0 0 94.96 123.75"><defs><style>.cls-1{fill:#fff;}.cls-2{fill:#9a579e;}</style></defs><g id="Capa_2" data-name="Capa 2"><g id="Capa_1-2" data-name="Capa 1"><path class="cls-1" d="M36.76,41.64"/><path class="cls-2" d="M36.76,44.14s0-5,0-5,0,5,0,5Z"/><path class="cls-1" d="M38.56,67.11h0A9.18,9.18,0,0,0,45,64.5a2.89,2.89,0,0,0,.27-4,2.85,2.85,0,0,0-4.1-.29c-1.93,1.49-3.16,1.49-5.08,0a2.89,2.89,0,1,0-3.79,4.36A9.19,9.19,0,0,0,38.56,67.11Z"/><path class="cls-1" d="M29.5,48.28h0c0-.22,0-.45,0-.67,0-.5,0-1,0-1.52a2.88,2.88,0,0,0-3-2.68,2.84,2.84,0,0,0-2.73,2.82c0,1.19,0,2.46,0,3.85A2.92,2.92,0,0,0,26.53,53h.09a2.91,2.91,0,0,0,2.87-2.75,12.78,12.78,0,0,0,0-1.38C29.51,48.67,29.5,48.47,29.5,48.28Z"/><path class="cls-1" d="M47.71,50.09A2.94,2.94,0,0,0,50.5,53h.1a2.87,2.87,0,0,0,2.85-2.64,30.32,30.32,0,0,0,0-4.37,2.81,2.81,0,0,0-3-2.57,2.89,2.89,0,0,0-2.74,2.8c0,.45,0,.89,0,1.34v1.16C47.7,49.17,47.69,49.63,47.71,50.09Z"/><path class="cls-1" d="M94.75,87.4A13,13,0,0,0,81.19,76a12.3,12.3,0,0,0-6.94,2.57l-.42-.27a12.33,12.33,0,0,0-17.15,2.57,3.91,3.91,0,0,1-3.91,1.79c-1.37-.1-2.7-.08-4.12,0H47.31c0-.22,0-.44,0-.65a23.83,23.83,0,0,0,0-2.4c-.07-.73.1-1,.91-1.18a26.53,26.53,0,0,0,13.54-8.26c3.89-4.59,5.83-10.23,6.1-17.74a2.52,2.52,0,0,1,.72-1.81,8.54,8.54,0,0,0,2.32-3.69c.93-3.63,1.9-7.25,2.87-10.87.79-3,1.59-5.94,2.36-8.91A8.63,8.63,0,0,0,76.34,24c-.53-4.33-2.38-8.53-5.83-13.24-3.7-5-8-8.26-13-9.81C56.59.66,55.69.46,54.81.28c-.4-.09-.8-.17-1.2-.27H27.36l-.13,0-.3.08a3.53,3.53,0,0,1-.54.13A16.66,16.66,0,0,0,11.68,13.36a2.17,2.17,0,0,1-.87,1.1c-3.1,2-6.27,4.25-8.47,7.61a9,9,0,0,0-1,8.85C3.3,35.67,5.17,40.55,7,45.27c.62,1.61,1.23,3.21,1.85,4.81a5.48,5.48,0,0,1,.29,1.37c.07.7.11,1.4.16,2.11a37.28,37.28,0,0,0,.35,3.76c1.07,6.86,4.15,12.3,9.15,16.18A29.75,29.75,0,0,0,29,78.5a4.25,4.25,0,0,1,.64.31c.07,1,.06,2,.05,3.14,0,.23,0,.47,0,.7H27.22c-2.1,0-4.08,0-6.1,0A21.53,21.53,0,0,0,0,104.12c0,4.19,0,8.39,0,12.58v3.61c0,2.31,1.11,3.44,3.4,3.44H73.56c2.28,0,3.4-1.12,3.42-3.43v-1.11c0-2.12,0-4.31,0-6.46,0-.58.14-.83.76-1.21.85-.52,1.71-1,2.56-1.53a69.07,69.07,0,0,0,7.47-4.85C93.36,100.78,95.72,94.8,94.75,87.4ZM9.12,34.45v.35l-.45-1.16c-.61-1.63-1.25-3.31-2-4.93A2.89,2.89,0,0,1,7,25.52a28.16,28.16,0,0,1,3.81-4,20.73,20.73,0,0,1,2.43-1.66,24,24,0,0,0,2.11-1.39A4.11,4.11,0,0,0,17,16.18C18.14,9.57,22.13,6,28.57,5.86c7.55-.17,15.35-.17,23.83,0,3.81.07,7.32,1.77,10.72,5.19a25.79,25.79,0,0,1,7.45,13.22,2.59,2.59,0,0,1,0,1.07q-1.34,5.13-2.71,10.24c0-.58,0-1.16,0-1.74,0-2.11-1.08-3.23-3.15-3.32A11.26,11.26,0,0,1,55,24.68c-.29-.49-.6-1-.91-1.44a3.23,3.23,0,0,0-2.24-1.52l-.3,0a3.27,3.27,0,0,0-2.18,1c-1.34,1.23-2.93,2.69-4.46,4.21a12.2,12.2,0,0,1-9.25,3.66c-5.42-.06-10.93-.05-16.25,0H13C10.07,30.51,9.12,31.47,9.12,34.45ZM25,70.63c-5.82-3-9.18-8.17-9.73-15-.37-4.52-.4-9-.43-13.7q0-2.82-.06-5.67h7.15c4.62,0,9.39,0,14.09,0a17.35,17.35,0,0,0,12.68-5.07c.57-.55,1.16-1.09,1.76-1.66l.5-.47,0,0c.25.32.48.62.72.91A16.8,16.8,0,0,0,61.56,36c.54.11.54.11.53.43,0,2,0,3.92,0,5.89,0,3.88,0,7.89-.23,11.8-.7,10.23-6,16.45-16.2,19-4,1-4.15,1.21-4.15,5.29v6.24c0,2.73.93,3.69,3.67,3.78h.15a6.34,6.34,0,0,1-2.73,5.07,6.43,6.43,0,0,1-7.35.56,6.57,6.57,0,0,1-3.6-5.65h0a7.6,7.6,0,0,0,1,0,2.83,2.83,0,0,0,2.8-2.89c.06-3,.06-6.07,0-9.12,0-1.76-1.09-2.45-2.79-3L31.23,73A38.34,38.34,0,0,1,25,70.63Zm46.17,46.05v1.22H5.81v-5.35c0-2.72,0-5.45,0-8.17A15.74,15.74,0,0,1,21.47,88.44h1.7c.72,0,1.43,0,2.15,0,.47,0,.52,0,.56.53a12.7,12.7,0,0,0,10.23,11.53A12.53,12.53,0,0,0,50,93.21a18.83,18.83,0,0,0,1-3.37c.1-.42.21-.86.32-1.29h2.22c0,.21,0,.43,0,.65a25.74,25.74,0,0,0,0,2.63c.41,5.92,3.26,10.78,8.46,14.44,2.14,1.5,4.45,2.83,6.68,4.11l1.84,1.06a1,1,0,0,1,.63,1C71.17,113.88,71.17,115.27,71.18,116.68ZM85.45,99.46c-3,3.1-6.89,5.12-10.64,7.07l-.47.25a.46.46,0,0,1-.26,0c-1-.59-1.92-1.17-2.88-1.75a82.39,82.39,0,0,1-7.06-4.56A11.81,11.81,0,0,1,59.29,91h0a9.87,9.87,0,0,1,2.63-7.28,6.59,6.59,0,0,1,4.7-1.91h.23a6.73,6.73,0,0,1,4.5,2c2.1,2,3.66,2,5.75,0A6.56,6.56,0,0,1,84,82.13a7.07,7.07,0,0,1,4.93,5.77A12.61,12.61,0,0,1,85.45,99.46Z"/></g></g></svg>