<svg xmlns="http://www.w3.org/2000/svg" viewBox="0 0 130.91 130.92"><defs><style>.cls-1{fill:#fff;}</style></defs><g id="Capa_2" data-name="Capa 2"><g id="Capa_1-2" data-name="Capa 1"><path class="cls-1" d="M123.2,26.08c-.79-1.6-1.88-2.77-3.77-2.78h0l0,.15h0V23.3c-1.87,0-3,1.14-3.77,2.74-2,4.09-4,8.16-6.1,12.21a14.9,14.9,0,0,0-1.64,7q0,30.28,0,60.57c0,1.87,0,3.75,0,5.62a11.51,11.51,0,0,0,7.68,10.84,13.37,13.37,0,0,0,4.06.67,10.78,10.78,0,0,0,9-4.74c1.11-1.57,1.55-3.62,2.3-5.45V42.7a43.08,43.08,0,0,0-1.53-4.16C127.37,34.37,125.25,30.25,123.2,26.08Zm0,85.88a3.77,3.77,0,0,1-3.72,3.35h0a3.76,3.76,0,0,1-3.76-3.26,41.73,41.73,0,0,1,0-4.34h7.59C123.21,109.18,123.31,110.58,123.18,112Zm-7.54-12V54.05h7.52V99.91Zm7.57-53.68h-7.58c-.58-4.1,2.43-6.84,3.75-10.28C120.8,39.31,123.67,42.06,123.21,46.23Z"/><path class="cls-1" d="M19.24,46.28a4.1,4.1,0,0,0-.9.11,3.81,3.81,0,0,0-1.76,6.53c2.3,2.39,4.68,4.71,7,7a4.68,4.68,0,0,0,3.22,1.67,4.81,4.81,0,0,0,3.28-1.7L44.39,45.66a9.7,9.7,0,0,0,.86-.95,3.86,3.86,0,0,0-3.12-6.09,4.34,4.34,0,0,0-3.05,1.5c-4,4.05-8,8.09-12.24,12.3l-4.79-4.85A3.93,3.93,0,0,0,19.24,46.28Z"/><path class="cls-1" d="M43.32,65.66a4,4,0,0,0-1.19-.2A4.31,4.31,0,0,0,39.08,67L26.82,79.29C25.14,77.57,23.6,76,22,74.42a3.89,3.89,0,0,0-2.8-1.29,3.7,3.7,0,0,0-.91.11,3.81,3.81,0,0,0-1.75,6.53c2.31,2.39,4.69,4.71,7,7.06a4.69,4.69,0,0,0,3.22,1.65,4.79,4.79,0,0,0,3.28-1.7L44.31,72.59a9.29,9.29,0,0,0,.94-1A3.77,3.77,0,0,0,43.32,65.66Z"/><path class="cls-1" d="M42.34,92.31A4.9,4.9,0,0,0,39,94l-11,11c-.32.33-.66.64-1.18,1.13-1.59-1.63-3.05-3.18-4.56-4.68A4.47,4.47,0,0,0,19.08,100a3.63,3.63,0,0,0-2.56,1.09c-1.65,1.6-1.56,3.92.27,5.77q3.45,3.5,7,7a4.48,4.48,0,0,0,3.11,1.54A4.49,4.49,0,0,0,30,113.77q7.24-7.22,14.46-14.45c1.94-1.94,2.11-4.2.48-5.86A3.56,3.56,0,0,0,42.34,92.31Z"/><path class="cls-1" d="M58,54H80c2.6,0,4.34-1.56,4.34-3.83S82.63,46.29,80,46.28H58c-2.6,0-4.33,1.56-4.33,3.83S55.44,53.94,58,54Z"/><path class="cls-1" d="M58,80.79H80c2.6,0,4.34-1.55,4.34-3.83S82.63,73.14,80,73.13H58c-2.6,0-4.33,1.55-4.33,3.83S55.44,80.79,58,80.79Z"/><path class="cls-1" d="M58,107.64H80c2.6,0,4.34-1.55,4.34-3.83S82.63,100,80,100H58c-2.6,0-4.34,1.55-4.33,3.83S55.44,107.64,58,107.64Z"/><path class="cls-1" d="M88,15.35c-1.54,0-3.07,0-4.61,0-2.13,0-4.25,0-6.38,0h0a1.23,1.23,0,0,1-1.3-.86A11.3,11.3,0,0,0,65.39,7.68l-.49,0a1.32,1.32,0,0,0-.28,0,10.12,10.12,0,0,1-1.3.1c-1.81,0-3.18-.72-4.19-2.87C58,2.52,55.58,1.19,53,.47L51.39,0H48.33a12.35,12.35,0,0,0-7.1,4,11.81,11.81,0,0,0-1.72,2.67,1.53,1.53,0,0,1-1.65,1.05h-.08l-2.17,0a13.23,13.23,0,0,0-5.5.92,11.17,11.17,0,0,0-6,5.81,1.38,1.38,0,0,1-1.5,1h0c-2.19,0-4.39-.06-6.58-.06-1.9,0-3.79,0-5.68.21C4.27,16.07.22,20.72,0,26.84c0,.21,0,.42,0,.64v91.26c0,4.94,2,8.79,6.55,10.93a12.68,12.68,0,0,0,5.28,1.19q22.14.06,44.26.06l31.8,0A11.43,11.43,0,0,0,99.7,119.12q.06-46,0-92A11.47,11.47,0,0,0,88,15.35ZM23,25.93c0,3.36,1.38,4.75,4.71,4.75H72.83a3.85,3.85,0,0,0,3.87-3.92c0-1.19,0-2.38,0-3.64a8.67,8.67,0,0,1,.91-.1H87.84A3.85,3.85,0,0,1,92,27.24q0,45.89,0,91.76c0,2.67-1.54,4.24-4.19,4.24H11.93c-2.73,0-4.25-1.55-4.25-4.3q0-45.82,0-91.64C7.68,24.55,9.21,23,12,23H23Zm7.71-7a3.75,3.75,0,0,1,3.81-3.55l2.75,0h4.4c2.67,0,4.09-1.31,4.35-4a3.86,3.86,0,0,1,3.83-3.7h0a3.86,3.86,0,0,1,3.83,3.69c.26,2.65,1.68,4,4.34,4H64.8A3.88,3.88,0,0,1,69,19.53c0,1.11,0,2.21,0,3.39H30.7C30.7,21.53,30.63,20.21,30.72,18.91Z"/></g></g></svg>