<svg xmlns="http://www.w3.org/2000/svg" viewBox="0 0 279.02 175.83"><defs><style>.cls-1{fill:#9a579e;}.cls-2{fill:#fff;}</style></defs><g id="Capa_2" data-name="Capa 2"><g id="Capa_1-2" data-name="Capa 1"><rect class="cls-1" width="279.02" height="175.83" rx="40.73"/><path class="cls-2" d="M29.82,130.1a51.89,51.89,0,0,1,2-14.77,25.36,25.36,0,0,1,1.2-3.33c6.17-14,17-22,32.13-24.09l1.44-.22a4.9,4.9,0,0,0-.53-1,27.63,27.63,0,0,1-6.75-18.89c0-6.49,0-13,0-19.48C59.42,35.5,69,25.9,81.79,25.82c9-.06,18,0,27,0,4.79,0,6,2.26,5.29,8.26a130,130,0,0,0,0,30.41c.92,8.57-1.16,16-6.53,22.22-.18.21-.3.47-.59.89,2.14.4,4.14.7,6.11,1.15a39.66,39.66,0,0,1,30.69,37.53c.13,6.07,0,12.13,0,18.2,0,4.07-1.47,5.53-5.57,5.53H61.36c-8.5,0-17-.07-25.48,0-2.66,0-4.73-.65-6.06-3ZM135.2,141.35c0-5,.08-9.95,0-14.86a31.17,31.17,0,0,0-25.46-29.72,2.88,2.88,0,0,0-3,.92c-5.26,5.34-10.57,10.61-15.88,15.9-3.08,3.08-5,3.06-8.17-.06q-7.95-7.94-15.88-15.9A2.7,2.7,0,0,0,64,96.74c-9.57,1.83-16.64,7.15-21.57,15.4a26,26,0,0,0-3.79,12.16c5.71,0,11.19,0,16.68,0,3.17,0,5,1.67,5,4.31s-1.89,4.23-5.09,4.24c-4.92,0-9.84,0-14.77,0h-2v8.48ZM68.12,62.08a73.53,73.53,0,0,0,0,8.93A18.63,18.63,0,0,0,96,85.11c9.8-5.56,10.56-14.32,9.41-24.64-3.52.53-7.05,1.44-10.6,1.54-8.12.23-16.25.07-24.38.07ZM68,53.4c9.93,0,19.62.14,29.31-.07,4-.08,7.13-2.44,7.84-6.4s.5-8.28.7-12.52c-8.72,0-16.92-.11-25.11.05a12.76,12.76,0,0,0-10.48,5.77C67.47,44.2,67.82,48.72,68,53.4ZM78,96.33l8.65,8.58,8.54-8.58Z"/><path class="cls-2" d="M200.67,150H175c-13.11,0-22.37-9.16-22.5-22.28-.06-5.93.06-11.85-.07-17.77a5.41,5.41,0,0,0-1.35-3.31C146,101.35,140.73,96.17,135.5,91c-1.58-1.56-2.69-3.25-1.82-5.5s2.95-2.81,5.27-2.77c4.49.06,9,0,13.48,0a2.34,2.34,0,0,0,2.46-1.5c3.83-7.43,10-11.59,18.31-11.7q27.83-.36,55.66,0c10.67.13,20,9.65,20.19,20.33q.31,19.8,0,39.61c-.17,11-9.74,20.28-20.77,20.45-9.21.14-18.42,0-27.62,0ZM147.92,91.32c3.89,3.88,7.31,7.38,10.84,10.78a7,7,0,0,1,2.31,5.49c-.08,6.57-.06,13.14,0,19.71,0,8.84,5.35,14.13,14.14,14.14h51.19c8.84,0,14.17-5.3,14.18-14.08q0-17.56,0-35.13c0-8.93-5.29-14.18-14.29-14.19h-51c-7.31,0-11.32,2.83-13.85,9.75-1,2.64-2.14,3.49-4.94,3.52C153.87,91.34,151.23,91.32,147.92,91.32Z"/><path class="cls-2" d="M77.48,128.61a4.19,4.19,0,1,1-4.16-4.28A4.26,4.26,0,0,1,77.48,128.61Z"/><path class="cls-2" d="M202.41,110c3.81-3.82,7.23-7.35,10.78-10.74a8.2,8.2,0,0,1,3.41-1.94,3.56,3.56,0,0,1,4,1.84,3.82,3.82,0,0,1,0,4.42,11.13,11.13,0,0,1-1.5,1.79q-6.25,6.3-12.54,12.55c-2.9,2.89-4.95,2.89-7.84,0q-3.27-3.24-6.5-6.5c-2.55-2.57-2.86-4.93-.94-6.91s4.52-1.63,7.05.95C199.72,106.88,201,108.41,202.41,110Z"/></g></g></svg>