<svg xmlns="http://www.w3.org/2000/svg" viewBox="0 0 115.27 115.38"><defs><style>.cls-1{fill:#fff;}</style></defs><g id="Capa_2" data-name="Capa 2"><g id="Capa_1-2" data-name="Capa 1"><path class="cls-1" d="M27,100a3.86,3.86,0,0,0,3.78-3.87,3.79,3.79,0,0,0-3.8-3.8,3.86,3.86,0,0,0-3.87,3.77A3.94,3.94,0,0,0,27,100Z"/><path class="cls-1" d="M30.73,50a3.86,3.86,0,0,0-3.8-3.84A3.94,3.94,0,0,0,23.06,50,3.86,3.86,0,0,0,27,53.84,3.78,3.78,0,0,0,30.73,50Z"/><path class="cls-1" d="M46.1,76.94a3.83,3.83,0,0,0,0,7.66,3.83,3.83,0,1,0,0-7.66Z"/><path class="cls-1" d="M46.09,69.22a3.83,3.83,0,0,0,.11-7.66,3.83,3.83,0,1,0-.11,7.66Z"/><path class="cls-1" d="M27,84.61a3.84,3.84,0,0,0,3.78-3.86,3.8,3.8,0,0,0-3.8-3.81,3.87,3.87,0,0,0-3.87,3.78A3.92,3.92,0,0,0,27,84.61Z"/><path class="cls-1" d="M49.93,50.22a3.84,3.84,0,0,0-3.71-4,3.92,3.92,0,0,0-3.95,3.71,3.86,3.86,0,0,0,3.68,4A3.79,3.79,0,0,0,49.93,50.22Z"/><path class="cls-1" d="M3.85,69.22a3.82,3.82,0,0,0,3.84-3.78,3.86,3.86,0,0,0-3.75-3.88,3.83,3.83,0,1,0-.09,7.66Z"/><path class="cls-1" d="M26.94,69.22a3.83,3.83,0,0,0,0-7.66,3.83,3.83,0,1,0,0,7.66Z"/><path class="cls-1" d="M42.27,96.09a3.93,3.93,0,0,0,3.89,3.9,3.85,3.85,0,0,0,3.77-3.86,3.77,3.77,0,0,0-3.79-3.81A3.85,3.85,0,0,0,42.27,96.09Z"/><path class="cls-1" d="M65.36,53.84A3.79,3.79,0,0,0,69.15,50a3.87,3.87,0,0,0-3.8-3.85,3.91,3.91,0,0,0-3.86,3.92A3.82,3.82,0,0,0,65.36,53.84Z"/><path class="cls-1" d="M93,87.61a3,3,0,0,1-.75-1.85c-.08-3,0-5.91-.06-8.86a3.83,3.83,0,1,0-7.65.07c0,1.88,0,3.75,0,5.63s0,3.83,0,5.75a4,4,0,0,0,1.26,3c2.5,2.47,5,5,7.46,7.45a3.7,3.7,0,0,0,5.52.14c1.66-1.63,1.62-3.84-.13-5.61S94.86,89.56,93,87.61Z"/><path class="cls-1" d="M94.71,62.36c-.8-.2-1.61-.37-2.48-.56V60.3q0-20.2,0-40.4c0-7.19-5-12.13-12.13-12.15h-11c0-1.58.11-3,0-4.37a3.76,3.76,0,0,0-5.36-3,3.86,3.86,0,0,0-2.26,3.78c0,1.18,0,2.35,0,3.52H30.73V6.38c0-.84,0-1.68,0-2.52a3.83,3.83,0,0,0-7.65-.08c-.06,1.3,0,2.6,0,4H21.58c-3.44,0-6.88-.06-10.31,0A11.45,11.45,0,0,0,.06,18.85C0,29.28,0,39.71,0,50.14a3.64,3.64,0,0,0,3.8,3.78,3.66,3.66,0,0,0,3.86-3.84c0-3.39,0-6.79,0-10.19V38.57H84.45V61.82a27,27,0,0,0-14.94,45.86H12.24a7.21,7.21,0,0,1-1.31-.08A3.69,3.69,0,0,1,7.71,104c0-.36,0-.72,0-1.08q0-11,0-21.94A3.84,3.84,0,1,0,0,81c0,7.32,0,14.63,0,21.94,0,7.57,4.87,12.46,12.42,12.46q37.58,0,75.15,0a32.77,32.77,0,0,0,5.24-.42,26.85,26.85,0,0,0,1.88-52.59ZM7.78,30.69a8.6,8.6,0,0,1-.08-.9c0-3.39,0-6.79,0-10.18a3.8,3.8,0,0,1,4.17-4.17c3.67,0,7.34,0,11.18,0,0,1.4,0,2.63,0,3.86A3.7,3.7,0,0,0,27,23.21a3.65,3.65,0,0,0,3.76-3.91c0-1.24,0-2.47,0-3.78H61.48c0,1.28,0,2.54,0,3.8a3.67,3.67,0,0,0,4.14,3.78,3.49,3.49,0,0,0,3.47-3.3c.11-1.38,0-2.78,0-4.21a5.13,5.13,0,0,1,.81-.15c3.55,0,7.11,0,10.66,0a3.7,3.7,0,0,1,3.9,3.44,9.51,9.51,0,0,1,.05,1.31c0,3.47,0,6.94,0,10.5Zm80.66,77a19.23,19.23,0,1,1,19.17-19.26A19.18,19.18,0,0,1,88.44,107.69Z"/></g></g></svg>