<svg xmlns="http://www.w3.org/2000/svg" viewBox="0 0 211.48 189.74"><defs><style>.cls-1{fill:#fff;}.cls-2{fill:#ef8b33;}</style></defs><g id="Capa_2" data-name="Capa 2"><g id="Capa_1-2" data-name="Capa 1"><rect class="cls-1" width="211.48" height="189.74" rx="40.73"/><path class="cls-2" d="M168.84,119.78a37.82,37.82,0,0,0-31.7-36.73c-2.13-.34-4.3-.47-6.53-.71.14-.27.24-.48.36-.67a26.29,26.29,0,0,0,4-12c.24-4.24.15-8.5.28-12.74a2.28,2.28,0,0,1,.79-1.58A24,24,0,0,0,146.33,37.8c.73-6.42-2.64-12.07-8.45-14.07-.72-.24-1.47-.43-2.21-.64a1.4,1.4,0,0,0-.41-.06H95.48a27,27,0,0,0-3.66.22h-.11c-9.48,1.82-15.44,9-15.45,18.61,0,8-.09,16.08,0,24.12a36.85,36.85,0,0,0,1.16,8.56,39,39,0,0,0,2.27,5.88,1.53,1.53,0,0,1-1.29,2.14c-1.07.07-2.16.15-3.25.31a37.9,37.9,0,0,0-32.6,37.54c0,7.38,0,14.77,0,22.16a23.83,23.83,0,0,0,24.12,24.09c9.64,0,19.27,0,28.9,0a14.15,14.15,0,0,0,9.52-3.48,5.29,5.29,0,0,1,.67-.46,14.13,14.13,0,0,0,9.84,3.93c9.91,0,19.82.07,29.74,0a23.81,23.81,0,0,0,23.47-23.46C168.92,135.4,168.93,127.59,168.84,119.78ZM84.78,40.21a9.59,9.59,0,0,1,9.66-8.75c13,0,26.1,0,39.14,0A4.22,4.22,0,0,1,138,36a15.59,15.59,0,0,1-17.62,15,24.14,24.14,0,0,1-16.63-9.11c-2.4-3-5.71-2.69-7.58.68a16,16,0,0,1-10.57,8.11c-.26.06-.53.06-.86.1C84.73,47.21,84.51,43.69,84.78,40.21Zm39.31,36.58a21,21,0,0,1-39.4-9.94c0-2,0-4.09,0-6.18a1.54,1.54,0,0,1,1.23-1.5c5.8-1.11,9-2.81,13.76-7.25a1.55,1.55,0,0,1,2-.06,32.32,32.32,0,0,0,23.45,7.51,1.52,1.52,0,0,1,1.61,1.5C126.87,66.34,127.05,71.78,124.09,76.79ZM96.7,158.18a41,41,0,0,1-4.84,0,1.52,1.52,0,0,1-1.5-1.53v-8a1.52,1.52,0,0,1,1.48-1.52,30.69,30.69,0,0,1,5.43.09,5.28,5.28,0,0,1,4.24,5.65A5.51,5.51,0,0,1,96.7,158.18ZM121,156.74a1.53,1.53,0,0,1-1.52,1.53c-1.43,0-2.82,0-4.2,0a5.59,5.59,0,0,1-.33-11.15c1.5-.1,3-.07,4.55,0a1.52,1.52,0,0,1,1.5,1.53Zm39.37-13.51a15.3,15.3,0,0,1-15,15c-4.73.09-9.46,0-14.29,0a1.54,1.54,0,0,1-1.53-1.53v-8.16a1.54,1.54,0,0,1,1.53-1.53h13.27c3.11,0,4.8-1.67,4.81-4.73q0-9.33,0-18.65c0-2.75-1.71-4.64-4.16-4.67s-4.25,1.89-4.25,4.71c0,4.41,0,8.82,0,13.39a1.53,1.53,0,0,1-1.53,1.53h0c-7.11,0-14.22.1-21.33,0-4.15-.08-8,.56-11.25,3.21a1.52,1.52,0,0,1-1.9,0,13.73,13.73,0,0,0-7-3,21,21,0,0,0-2.51-.14H72.18a1.53,1.53,0,0,1-1.53-1.53h0c0-4.45,0-8.89,0-13.33,0-2.85-1.71-4.76-4.21-4.76s-4.2,1.91-4.21,4.75v18.52c0,3.1,1.67,4.77,4.76,4.78,4.4,0,8.8,0,13.26,0a1.54,1.54,0,0,1,1.53,1.53v8.17a1.54,1.54,0,0,1-1.53,1.53c-2.35,0-4.68,0-7,0a81.13,81.13,0,0,1-9.37-.29,15,15,0,0,1-12.79-14.25c-.17-8.32-.28-16.65,0-25,.55-15.18,13.54-27.59,28.76-27.8,2.8,0,5.61,0,8.41,0a3.87,3.87,0,0,1,1.82.52q15.63,9.09,31.24,0a2.62,2.62,0,0,1,1.25-.53c4.66.14,9.4-.13,14,.6,13.25,2.12,23.61,14.27,23.86,27.69C160.55,127.24,160.52,135.24,160.41,143.23Z"/><path class="cls-2" d="M100.45,102.08c1,.27,2.66.75,4.32,1.13a3.19,3.19,0,0,0,1.81,0,12.28,12.28,0,0,1,13.66,20c-3.73,3.8-7.52,7.55-11.31,11.31-1.89,1.88-4.33,2-6.12.25-4.1-4-8.26-8-12.15-12.24-3.53-3.83-4.16-8.42-2-13.17S94.63,102.41,100.45,102.08Zm5.4,23.65c2.73-2.73,5.51-5.48,8.25-8.27,1.82-1.83,1.92-4.09.33-5.72s-3.73-1.54-5.62.12a4.21,4.21,0,0,1-6.15,0c-.17-.15-.34-.31-.53-.45a3.77,3.77,0,0,0-5.09.33,3.61,3.61,0,0,0-.24,5.07C99.71,119.83,102.76,122.7,105.85,125.73Z"/></g></g></svg>