<svg xmlns="http://www.w3.org/2000/svg" viewBox="0 0 211.48 175.83"><defs><style>.cls-1{fill:#fff;}.cls-2{fill:#ef8b33;}</style></defs><g id="Capa_2" data-name="Capa 2"><g id="Capa_1-2" data-name="Capa 1"><rect class="cls-1" width="211.48" height="175.83" rx="40.73"/><path class="cls-2" d="M173.38,35.52v96.71c-1.12,2.66-3.15,3.54-6,3.47-5.72-.13-11.44,0-17.17,0h-1.44c0,4.92,0,9.63,0,14.34,0,4.47-3.32,6.52-7.32,4.54-3.19-1.58-6.36-3.21-9.57-4.74a2.2,2.2,0,0,0-1.67,0c-3.29,1.57-6.53,3.26-9.81,4.86-3.73,1.82-7-.24-7-4.39,0-4.36,0-8.72,0-13.08v-1.53H43.5c-3.67,0-5.4-1.74-5.4-5.43q0-46.42,0-92.86a8,8,0,0,1,.16-2c.59-2.39,2.37-3.51,5.48-3.51q61.95,0,123.9,0C170.45,31.87,172.41,32.82,173.38,35.52Zm-60,90.91c0-2.54-.05-5,0-7.45a2.85,2.85,0,0,0-1-2.29,25.81,25.81,0,0,1-7.8-20.42,26.43,26.43,0,0,1,31.49-24.4c10.08,2.08,17,8.16,20.17,17.94,3.05,9.47,1.1,18.23-5.51,25.69a6.81,6.81,0,0,0-2,5.47c.14,1.81,0,3.65,0,5.44h15.35V41.15H47.34v85.28ZM131,115.3a17.42,17.42,0,1,0-17.36-17.54A17.49,17.49,0,0,0,131,115.3Zm8.52,7.75a27.33,27.33,0,0,1-17,0v20.32c2-1,3.84-1.83,5.63-2.82a5.49,5.49,0,0,1,5.74,0c1.79,1,3.67,1.83,5.62,2.8Z"/><path class="cls-2" d="M86.07,55.58c9.11,0,18.22,0,27.33,0a4.54,4.54,0,0,1,4.45,6.23,4.27,4.27,0,0,1-3.55,2.79,12.54,12.54,0,0,1-1.84.1q-26.46,0-52.93,0a9.34,9.34,0,0,1-2.48-.26,4.43,4.43,0,0,1-3.11-4.91,4.49,4.49,0,0,1,4.15-3.93c.92-.06,1.85,0,2.77,0Z"/><path class="cls-2" d="M74.19,88.36c-5.23,0-10.46,0-15.7,0A4.54,4.54,0,0,1,54,84.67a4.47,4.47,0,0,1,2.82-5.09,7,7,0,0,1,2.32-.36q15.11,0,30.22,0c3.17,0,5.29,2,5.2,4.7a4.56,4.56,0,0,1-4.77,4.45C84.57,88.38,79.38,88.36,74.19,88.36Z"/><path class="cls-2" d="M70.23,102.89c4,0,7.92,0,11.89,0a4.46,4.46,0,0,1,4.33,3.24,4.39,4.39,0,0,1-1.75,5,4.65,4.65,0,0,1-2.32.8c-8.1.06-16.19.08-24.29,0a4.27,4.27,0,0,1-4.16-4,4.5,4.5,0,0,1,3.51-4.9,8,8,0,0,1,1.7-.12H70.23Z"/></g></g></svg>