<svg xmlns="http://www.w3.org/2000/svg" viewBox="0 0 96.59 118.44"><defs><style>.cls-1{fill:#fff;}</style></defs><g id="Capa_2" data-name="Capa 2"><g id="Capa_1-2" data-name="Capa 1"><path class="cls-1" d="M96.53,72.93q0-6.87,0-13.74V8.63c0-5.32-3.3-8.63-8.61-8.63H8.6C3.31,0,0,3.27,0,8.54V31.46q0,27.6,0,55.2A9.87,9.87,0,0,0,3,94c6.18,6.2,13.5,13.56,21,21.19a10.46,10.46,0,0,0,7.83,3.26h3c17.33,0,35.25-.06,52.88,0h.06A8.76,8.76,0,0,0,94.13,116a8.89,8.89,0,0,0,2.46-6.45C96.5,97.32,96.52,84.92,96.53,72.93Zm-70.82,32.9v1.45L10.09,92.07h2q6.12,0,12.24,0a1.35,1.35,0,0,1,1.38,1.36C25.72,97.61,25.71,101.78,25.71,105.83Zm64.5,3.82c0,1.94-.46,2.41-2.33,2.41H32.05v-6.21q0-5.94,0-11.88a7.85,7.85,0,0,0-8.23-8.25q-6,0-12,0H6.35V8.77c0-2,.43-2.43,2.43-2.43h79c2,0,2.46.43,2.46,2.41Z"/><path class="cls-1" d="M83.94,91.53c0-2.85-1.52-4.37-4.34-4.39h-.55c-.6,0-1.23,0-1.85,0a.84.84,0,0,1-.65-.15.87.87,0,0,1-.18-.67V86A24.41,24.41,0,0,0,76.3,83a3.65,3.65,0,0,0-3.58-3.35c-1.24-.06-2.49-.06-3.72,0a3.76,3.76,0,0,0-3.63,3.7c0,.41,0,.82,0,1.22a14.76,14.76,0,0,1-.05,1.88,1.08,1.08,0,0,1-.69.69,13.48,13.48,0,0,1-1.8.05q-.53,0-1,0a3.88,3.88,0,0,0-4,4c0,1.07,0,2.12,0,3.12a3.85,3.85,0,0,0,4,3.93c1.13,0,2,0,2.88,0a.79.79,0,0,1,.61.16.76.76,0,0,1,.17.6c0,.8,0,1.68,0,2.76a3.88,3.88,0,0,0,4,4.09l1.4,0,1.48,0a3.9,3.9,0,0,0,4.11-4c0-.38,0-.75,0-1.12a12.65,12.65,0,0,1,0-1.74,1.1,1.1,0,0,1,.7-.68,16.68,16.68,0,0,1,1.87,0H80.1a3.8,3.8,0,0,0,3.83-3.77c0-.39,0-.78,0-1.16,0-.12,0-.25,0-.37V91.53ZM79.7,94.05H75.9c-2.58,0-3.64,1-3.66,3.6v3.95H69.49v-1.17c0-1,0-1.91,0-2.86,0-2.39-1.14-3.51-3.53-3.52h-4V91.28h4c2.49,0,3.56-1.08,3.57-3.57,0-.9,0-1.8,0-2.73V83.82h2.75v3.89c0,2.52,1.06,3.55,3.57,3.56H79.7Z"/><path class="cls-1" d="M26.65,42a7.92,7.92,0,0,0,1.34.07H68.54A7.82,7.82,0,0,0,70,42a3.25,3.25,0,0,0,2.73-3.15,3.2,3.2,0,0,0-2.27-3.34,5.69,5.69,0,0,0-1.89-.25H28a6.87,6.87,0,0,0-1.69.17A3.37,3.37,0,0,0,26.65,42Z"/><path class="cls-1" d="M26.56,25.68a5.92,5.92,0,0,0,1.08.08h41a7.62,7.62,0,0,0,1.15,0,3.25,3.25,0,0,0,3-3.12,3.21,3.21,0,0,0-2.53-3.5,6.31,6.31,0,0,0-1.69-.17H28a6.44,6.44,0,0,0-2,.27,3.2,3.2,0,0,0-2.23,3.38A3.26,3.26,0,0,0,26.56,25.68Z"/><path class="cls-1" d="M71.88,57.29a3.18,3.18,0,0,0,.9-2.3c0-.8-.32-3.4-4.26-3.42H28.2a8.29,8.29,0,0,0-1.81.14A3.2,3.2,0,0,0,23.8,55a3.25,3.25,0,0,0,2.78,3.3,7.28,7.28,0,0,0,1.35.09h40.6A4.58,4.58,0,0,0,71.88,57.29Z"/></g></g></svg>